<?xml version="1.0" encoding="UTF-8"?>
<svg version="1.1" xmlns="http://www.w3.org/2000/svg" width="350" height="317">
<path d="M0 0 C0.75846222 -0.00794586 1.51692444 -0.01589172 2.29837036 -0.02407837 C24.27124671 -0.20073546 50.67488301 3.18739224 67.5078125 18.69140625 C75.17622681 27.72169742 75.30442797 41.5683608 76.2265625 52.76171875 C76.38933182 54.68139969 76.38933182 54.68139969 76.5553894 56.63986206 C76.90316126 60.77979597 77.23427348 64.92097697 77.5625 69.0625 C77.61866486 69.76554638 77.67482971 70.46859276 77.73269653 71.19294357 C79.15960571 89.09502461 80.43520989 106.96766724 80.4375 124.9375 C80.44369354 126.08090347 80.44369354 126.08090347 80.45001221 127.24740601 C80.50489754 149.24405902 74.96062527 168.69080238 59.62890625 184.80078125 C51.32061837 192.69979386 41.48292961 198.42752258 31.5 203.9375 C24.58527955 207.95725749 19.70324924 212.39916042 17 220.0625 C14.77928907 228.95896772 15.85643974 238.14477531 16.71484375 247.1640625 C17.13531788 253.22774211 17.01219413 259.29987736 16.9375 265.375 C18.33548828 265.52195312 18.33548828 265.52195312 19.76171875 265.671875 C32.7603608 267.19648822 47.69211871 269.28747019 56.88671875 279.55078125 C59.30602373 282.90622755 60.79086235 285.52776022 61.5 289.625 C60.58697802 294.08866303 58.98827738 296.64985808 55.21484375 299.25390625 C30.18979601 311.86887183 -0.84797362 313.1147188 -28.42700195 314.04248047 C-29.98130131 314.09769363 -31.5353667 314.15991976 -33.08911133 314.22900391 C-52.58289184 315.09212167 -52.58289184 315.09212167 -60 308.9375 C-63.41554123 304.69394878 -64.56087429 302.01941406 -64.36328125 296.3828125 C-63.47357443 290.4437306 -58.28599156 286.19713772 -53.94140625 282.4609375 C-44.75248076 275.80301862 -33.90533625 271.49642256 -23.0625 268.375 C-20.43776087 256.00122982 -20.52239339 243.87832985 -21.875 231.375 C-21.94493164 230.69348877 -22.01486328 230.01197754 -22.08691406 229.30981445 C-22.61536812 225.00375602 -23.70283592 221.24767651 -25.3503418 217.234375 C-26.08975036 215.303852 -26.59855294 213.38775653 -27.0625 211.375 C-27.67996094 211.34921875 -28.29742187 211.3234375 -28.93359375 211.296875 C-41.15790973 210.47819935 -51.87222875 204.40449654 -60.25390625 195.51953125 C-82.97122662 168.58257901 -89.27135022 133.8651749 -89.3125 99.625 C-89.31483643 98.73714813 -89.31717285 97.84929626 -89.31958008 96.93453979 C-89.33447184 81.77624853 -88.51723106 66.77757103 -87.12988281 51.68652344 C-87.06104385 50.9373616 -86.9922049 50.18819977 -86.92127991 49.41633606 C-86.78861546 47.97939612 -86.65426876 46.54261027 -86.51805115 45.10600281 C-86.16842766 41.24949421 -86.02129662 37.47166496 -86.11328125 33.6015625 C-86.2031528 27.78884322 -84.05026073 24.51702613 -80.0625 20.375 C-67.97663563 10.70241612 -53.44520413 7.08108944 -38.62451172 3.92724609 C-36.39815058 3.44735007 -34.18693133 2.9264644 -31.97265625 2.39453125 C-21.41788845 0.06675443 -10.75794576 0.05899248 0 0 Z " fill="#FBFBFB" transform="translate(270.0625,-0.375)"/>
<path d="M0 0 C2.91619768 2.71333175 4.72309057 5.16927171 6 9 C6.06806332 11.70977083 5.99796741 14.40358531 5.9375 17.11328125 C5.92597835 19.94873706 5.92597835 19.94873706 6.43847656 22.4987793 C9.39747063 40.94875056 9.32428484 59.80842128 9.26074219 78.44140625 C9.24925602 81.84418339 9.25619097 85.24665083 9.26762104 88.64941788 C9.42847443 145.01229703 9.42847443 145.01229703 -7.8125 163.4375 C-17.4331984 172.17859169 -29.22714152 176.00641796 -41.296875 180.125 C-42.25078125 180.455 -43.2046875 180.785 -44.1875 181.125 C-45.00605469 181.39570313 -45.82460937 181.66640625 -46.66796875 181.9453125 C-51.92050682 184.32083223 -54.56207574 187.25953115 -56.6875 192.5625 C-57.08324219 193.51253906 -57.47898437 194.46257812 -57.88671875 195.44140625 C-60.61675948 204.16795749 -61.28784378 212.69416509 -61.1953125 221.79296875 C-61.19106766 223.40103142 -61.19106766 223.40103142 -61.18673706 225.0415802 C-61.17565375 228.4236731 -61.15057195 231.80548884 -61.125 235.1875 C-61.11495487 237.49804302 -61.10583172 239.80859024 -61.09765625 242.11914062 C-61.07575341 247.74618632 -61.04239627 253.37307335 -61 259 C-60.12478447 258.98722015 -60.12478447 258.98722015 -59.23188782 258.97418213 C-54.84216677 258.93707025 -50.63862876 259.03411518 -46.29296875 259.734375 C-45.29958496 259.89421875 -44.30620117 260.0540625 -43.28271484 260.21875 C-42.26129395 260.3940625 -41.23987305 260.569375 -40.1875 260.75 C-39.12740723 260.93046875 -38.06731445 261.1109375 -36.97509766 261.296875 C-26.0048641 263.24083886 -15.83314923 265.3203547 -7.625 273.3125 C-5.45717678 276.8977461 -5.26436937 278.88046845 -6 283 C-19.25257729 298.40164388 -53.7686133 297.74555815 -72.08886719 299.16143799 C-88.22439522 300.36432354 -104.38121125 301.17019678 -120.5625 301.3125 C-121.67882812 301.33014404 -122.79515625 301.34778809 -123.9453125 301.3659668 C-131.92228735 301.35923775 -138.98271685 300.25972177 -146 296.3125 C-148.78796168 293.08891931 -149.7982646 290.25196157 -150 286 C-149.04764162 278.9797582 -144.40633153 274.18478432 -139 270 C-127.10833823 262.06651383 -113.89773971 256.27633118 -100 253 C-98.6120552 240.39775656 -97.79050838 227.86999755 -97.75 215.1875 C-97.74097656 214.02702148 -97.73195312 212.86654297 -97.72265625 211.67089844 C-97.75511614 202.31433579 -98.13413883 191.78623239 -104 184 C-107.17038985 181.31397527 -110.75084912 179.58450096 -114.49609375 177.83203125 C-119.67078481 175.39827244 -123.35297249 173.03208526 -127.22265625 168.81640625 C-129.17754819 166.81854965 -131.25453339 165.22482689 -133.5 163.5625 C-144.09289067 155.4113604 -151.98674733 143.4298851 -154 130 C-154.33881654 125.30992532 -154.38136701 120.63866541 -154.375 115.9375 C-154.37445618 115.25071167 -154.37391235 114.56392334 -154.37335205 113.85632324 C-154.27922166 87.47119768 -150.75150869 61.24516214 -146.10693359 35.31152344 C-145.98387848 34.62143188 -145.86082336 33.93134033 -145.73403931 33.22033691 C-145.49167883 31.86186017 -145.24755051 30.50369749 -145.0015564 29.14587402 C-144.3712623 25.55738586 -143.87059069 21.98913735 -143.51660156 18.36230469 C-143.44007355 17.59510101 -143.36354553 16.82789734 -143.28469849 16.03744507 C-143.14595472 14.57225169 -143.02212881 13.10553657 -142.91622925 11.63760376 C-142.4736422 6.9233627 -141.29116871 4.3854144 -138 1 C-106.31094458 -24.89848505 -32.06891979 -24.21530678 0 0 Z " fill="#FBFBFB" transform="translate(154,16)"/>
<path d="M0 0 C0.75846222 -0.00794586 1.51692444 -0.01589172 2.29837036 -0.02407837 C24.27124671 -0.20073546 50.67488301 3.18739224 67.5078125 18.69140625 C75.17622681 27.72169742 75.30442797 41.5683608 76.2265625 52.76171875 C76.38933182 54.68139969 76.38933182 54.68139969 76.5553894 56.63986206 C76.90316126 60.77979597 77.23427348 64.92097697 77.5625 69.0625 C77.61866486 69.76554638 77.67482971 70.46859276 77.73269653 71.19294357 C79.15960571 89.09502461 80.43520989 106.96766724 80.4375 124.9375 C80.44369354 126.08090347 80.44369354 126.08090347 80.45001221 127.24740601 C80.50489754 149.24405902 74.96062527 168.69080238 59.62890625 184.80078125 C51.32061837 192.69979386 41.48292961 198.42752258 31.5 203.9375 C24.58527955 207.95725749 19.70324924 212.39916042 17 220.0625 C14.77928907 228.95896772 15.85643974 238.14477531 16.71484375 247.1640625 C17.13531788 253.22774211 17.01219413 259.29987736 16.9375 265.375 C18.33548828 265.52195312 18.33548828 265.52195312 19.76171875 265.671875 C32.7603608 267.19648822 47.69211871 269.28747019 56.88671875 279.55078125 C59.30602373 282.90622755 60.79086235 285.52776022 61.5 289.625 C60.58697802 294.08866303 58.98827738 296.64985808 55.21484375 299.25390625 C30.18979601 311.86887183 -0.84797362 313.1147188 -28.42700195 314.04248047 C-29.98130131 314.09769363 -31.5353667 314.15991976 -33.08911133 314.22900391 C-52.58289184 315.09212167 -52.58289184 315.09212167 -60 308.9375 C-63.41554123 304.69394878 -64.56087429 302.01941406 -64.36328125 296.3828125 C-63.47357443 290.4437306 -58.28599156 286.19713772 -53.94140625 282.4609375 C-44.75248076 275.80301862 -33.90533625 271.49642256 -23.0625 268.375 C-20.43776087 256.00122982 -20.52239339 243.87832985 -21.875 231.375 C-21.94493164 230.69348877 -22.01486328 230.01197754 -22.08691406 229.30981445 C-22.61536812 225.00375602 -23.70283592 221.24767651 -25.3503418 217.234375 C-26.08975036 215.303852 -26.59855294 213.38775653 -27.0625 211.375 C-27.67996094 211.34921875 -28.29742187 211.3234375 -28.93359375 211.296875 C-41.15790973 210.47819935 -51.87222875 204.40449654 -60.25390625 195.51953125 C-82.97122662 168.58257901 -89.27135022 133.8651749 -89.3125 99.625 C-89.31483643 98.73714813 -89.31717285 97.84929626 -89.31958008 96.93453979 C-89.33447184 81.77624853 -88.51723106 66.77757103 -87.12988281 51.68652344 C-87.06104385 50.9373616 -86.9922049 50.18819977 -86.92127991 49.41633606 C-86.78861546 47.97939612 -86.65426876 46.54261027 -86.51805115 45.10600281 C-86.16842766 41.24949421 -86.02129662 37.47166496 -86.11328125 33.6015625 C-86.2031528 27.78884322 -84.05026073 24.51702613 -80.0625 20.375 C-67.97663563 10.70241612 -53.44520413 7.08108944 -38.62451172 3.92724609 C-36.39815058 3.44735007 -34.18693133 2.9264644 -31.97265625 2.39453125 C-21.41788845 0.06675443 -10.75794576 0.05899248 0 0 Z M57.6875 44.75 C50.7805103 48.01269403 44.59445633 49.75377474 37.02734375 50.4296875 C36.12620346 50.51233856 35.22506317 50.59498962 34.2966156 50.68014526 C21.41644321 51.77286202 8.49031032 52.07109684 -4.42651367 52.43945312 C-7.18565622 52.52002152 -9.94453531 52.60816219 -12.70344543 52.69627857 C-25.31873928 53.09774673 -37.93685079 53.45278163 -50.55859375 53.55078125 C-51.85475868 53.57019272 -51.85475868 53.57019272 -53.17710876 53.58999634 C-60.38735974 53.60470846 -66.34583766 52.02968083 -73.0625 49.375 C-74.3925243 49.02869918 -75.72544695 48.69308496 -77.0625 48.375 C-79.30810359 59.518616 -79.37694525 70.4284484 -79.3125 81.75 C-79.31006287 82.67887024 -79.30762573 83.60774048 -79.30511475 84.5647583 C-79.2619048 98.58623482 -78.82822553 112.45127696 -77.0625 126.375 C-76.95292969 127.45136719 -76.84335938 128.52773437 -76.73046875 129.63671875 C-73.83590595 152.44332895 -63.14610051 179.32491943 -44.75 193.8125 C-38.66913649 197.992568 -32.73027305 199.48555033 -25.58203125 200.84765625 C-20.04585037 201.95118309 -15.35561451 203.22196754 -11.84375 208.05078125 C-8.14684472 214.21669112 -7.83934682 219.3935167 -7.8125 226.375 C-7.80855225 227.27911621 -7.80460449 228.18323242 -7.80053711 229.11474609 C-7.87549557 238.32149951 -8.89449263 247.39269399 -10.08300781 256.515625 C-10.96910724 263.67020971 -11.05665031 270.22757304 -10.0625 277.375 C-11.031875 277.49875 -12.00125 277.6225 -13 277.75 C-26.91668409 279.79090344 -40.91577674 285.22827674 -51.0625 295.375 C-51.10313832 297.04117115 -51.105221 298.70888095 -51.0625 300.375 C-45.39635745 303.89439771 -38.02425805 302.76545197 -31.5625 302.75 C-30.41151321 302.75018127 -30.41151321 302.75018127 -29.23727417 302.75036621 C-7.43472608 302.70196551 14.38701909 300.42024194 35.8125 296.375 C36.96093384 296.16278809 36.96093384 296.16278809 38.13256836 295.94628906 C42.92812336 294.93179137 46.08903642 293.2703958 49.9375 290.375 C49.56407148 286.58726106 49.56407148 286.58726106 47.08203125 283.86328125 C46.31246094 283.47527344 45.54289062 283.08726562 44.75 282.6875 C43.99332031 282.29175781 43.23664063 281.89601563 42.45703125 281.48828125 C32.63716327 277.14926982 22.0165801 276.2880874 11.3984375 275.71875 C8.9375 275.375 8.9375 275.375 5.9375 273.375 C4.98402145 270.51456434 4.74643585 268.47560486 4.62109375 265.4921875 C4.57879639 264.50178467 4.53649902 263.51138184 4.49291992 262.4909668 C4.28535382 256.78612194 4.09822053 251.08136665 3.9375 245.375 C3.90205078 244.24271973 3.86660156 243.11043945 3.83007812 241.94384766 C3.13304875 217.45891279 3.13304875 217.45891279 7.9375 208.375 C8.26492188 207.71113281 8.59234375 207.04726562 8.9296875 206.36328125 C13.25791638 199.08111514 21.90398703 195.49899846 29.04882812 191.54467773 C48.46611657 180.73131237 60.50921664 168.36321296 67.17578125 146.67578125 C69.20401869 137.88675233 69.17478769 128.98358586 69.1875 120 C69.18950409 119.30512482 69.19150818 118.61024963 69.193573 117.89431763 C69.20561966 100.43281033 67.85747253 83.06288065 66.49398804 65.66448975 C65.88857631 57.90620791 65.39502324 50.14334918 64.9375 42.375 C62.11814335 42.375 60.23070004 43.54788632 57.6875 44.75 Z " fill="#171717" transform="translate(270.0625,-0.375)"/>
<path d="M0 0 C2.91619768 2.71333175 4.72309057 5.16927171 6 9 C6.06806332 11.70977083 5.99796741 14.40358531 5.9375 17.11328125 C5.92597835 19.94873706 5.92597835 19.94873706 6.43847656 22.4987793 C9.39747063 40.94875056 9.32428484 59.80842128 9.26074219 78.44140625 C9.24925602 81.84418339 9.25619097 85.24665083 9.26762104 88.64941788 C9.42847443 145.01229703 9.42847443 145.01229703 -7.8125 163.4375 C-17.4331984 172.17859169 -29.22714152 176.00641796 -41.296875 180.125 C-42.25078125 180.455 -43.2046875 180.785 -44.1875 181.125 C-45.00605469 181.39570313 -45.82460937 181.66640625 -46.66796875 181.9453125 C-51.92050682 184.32083223 -54.56207574 187.25953115 -56.6875 192.5625 C-57.08324219 193.51253906 -57.47898437 194.46257812 -57.88671875 195.44140625 C-60.61675948 204.16795749 -61.28784378 212.69416509 -61.1953125 221.79296875 C-61.19106766 223.40103142 -61.19106766 223.40103142 -61.18673706 225.0415802 C-61.17565375 228.4236731 -61.15057195 231.80548884 -61.125 235.1875 C-61.11495487 237.49804302 -61.10583172 239.80859024 -61.09765625 242.11914062 C-61.07575341 247.74618632 -61.04239627 253.37307335 -61 259 C-60.12478447 258.98722015 -60.12478447 258.98722015 -59.23188782 258.97418213 C-54.84216677 258.93707025 -50.63862876 259.03411518 -46.29296875 259.734375 C-45.29958496 259.89421875 -44.30620117 260.0540625 -43.28271484 260.21875 C-42.26129395 260.3940625 -41.23987305 260.569375 -40.1875 260.75 C-39.12740723 260.93046875 -38.06731445 261.1109375 -36.97509766 261.296875 C-26.0048641 263.24083886 -15.83314923 265.3203547 -7.625 273.3125 C-5.45717678 276.8977461 -5.26436937 278.88046845 -6 283 C-19.25257729 298.40164388 -53.7686133 297.74555815 -72.08886719 299.16143799 C-88.22439522 300.36432354 -104.38121125 301.17019678 -120.5625 301.3125 C-121.67882812 301.33014404 -122.79515625 301.34778809 -123.9453125 301.3659668 C-131.92228735 301.35923775 -138.98271685 300.25972177 -146 296.3125 C-148.78796168 293.08891931 -149.7982646 290.25196157 -150 286 C-149.04764162 278.9797582 -144.40633153 274.18478432 -139 270 C-127.10833823 262.06651383 -113.89773971 256.27633118 -100 253 C-98.6120552 240.39775656 -97.79050838 227.86999755 -97.75 215.1875 C-97.74097656 214.02702148 -97.73195312 212.86654297 -97.72265625 211.67089844 C-97.75511614 202.31433579 -98.13413883 191.78623239 -104 184 C-107.17038985 181.31397527 -110.75084912 179.58450096 -114.49609375 177.83203125 C-119.67078481 175.39827244 -123.35297249 173.03208526 -127.22265625 168.81640625 C-129.17754819 166.81854965 -131.25453339 165.22482689 -133.5 163.5625 C-144.09289067 155.4113604 -151.98674733 143.4298851 -154 130 C-154.33881654 125.30992532 -154.38136701 120.63866541 -154.375 115.9375 C-154.37445618 115.25071167 -154.37391235 114.56392334 -154.37335205 113.85632324 C-154.27922166 87.47119768 -150.75150869 61.24516214 -146.10693359 35.31152344 C-145.98387848 34.62143188 -145.86082336 33.93134033 -145.73403931 33.22033691 C-145.49167883 31.86186017 -145.24755051 30.50369749 -145.0015564 29.14587402 C-144.3712623 25.55738586 -143.87059069 21.98913735 -143.51660156 18.36230469 C-143.44007355 17.59510101 -143.36354553 16.82789734 -143.28469849 16.03744507 C-143.14595472 14.57225169 -143.02212881 13.10553657 -142.91622925 11.63760376 C-142.4736422 6.9233627 -141.29116871 4.3854144 -138 1 C-106.31094458 -24.89848505 -32.06891979 -24.21530678 0 0 Z M-131 18 C-133.02410729 23.75471598 -134.73574151 29.45582945 -135.9375 35.4375 C-136.1022583 36.25661865 -136.2670166 37.0757373 -136.43676758 37.91967773 C-142.98486621 72.52397956 -151.67118144 118.8111029 -131 150 C-125.1637685 157.31075642 -119.27917613 163.01109335 -110.86987305 167.14428711 C-100.20398337 172.39777426 -93.91769263 177.25951751 -89.7265625 188.703125 C-88.40103896 192.89348973 -87.87399456 196.43909982 -87.87060547 200.86328125 C-87.86745331 202.0455127 -87.86430115 203.22774414 -87.86105347 204.44580078 C-87.8630777 205.72181152 -87.86510193 206.99782227 -87.8671875 208.3125 C-87.86623077 209.63233887 -87.86527405 210.95217773 -87.86428833 212.31201172 C-87.86281438 215.10954964 -87.86495347 217.90705564 -87.86962891 220.70458984 C-87.87528175 224.25689794 -87.87207376 227.80912973 -87.86605644 231.36143494 C-87.8624046 234.11900381 -87.86361114 236.87655529 -87.86618423 239.63412476 C-87.86715993 241.57029266 -87.86416443 243.5064613 -87.86105347 245.44262695 C-87.91643917 266.65835848 -87.91643917 266.65835848 -91 272 C-93.31 272 -95.62 272 -98 272 C-98.66 270.35 -99.32 268.7 -100 267 C-105.04373386 266.67889272 -109.09672888 267.77235202 -113.75 269.5625 C-114.45229736 269.8298999 -115.15459473 270.0972998 -115.87817383 270.37280273 C-124.01167254 273.60957465 -131.27195269 278.31727814 -137 285 C-137 285.66 -137 286.32 -137 287 C-133.41103643 288.63043097 -130.62660751 289.25016388 -126.69311523 289.23925781 C-125.65083267 289.2393988 -124.60855011 289.23953979 -123.53468323 289.23968506 C-121.84495644 289.22158783 -121.84495644 289.22158783 -120.12109375 289.203125 C-118.93341904 289.1960553 -117.74574432 289.1889856 -116.52207947 289.18170166 C-103.67003463 289.06097656 -90.8360611 288.56313561 -77.99975586 287.93798828 C-74.0413945 287.7489923 -70.08245957 287.58327953 -66.12304688 287.41796875 C-49.72968684 286.67094184 -33.57927602 285.51506063 -18 280 C-18 279.34 -18 278.68 -18 278 C-19.66237896 277.19936896 -21.33018125 276.40999632 -23 275.625 C-23.928125 275.18414062 -24.85625 274.74328125 -25.8125 274.2890625 C-32.34468857 271.64736859 -38.91603009 270.60065403 -45.875 269.875 C-46.66221436 269.79080811 -47.44942871 269.70661621 -48.26049805 269.61987305 C-59.18886067 268.48996814 -59.18886067 268.48996814 -70 270 C-75.54121804 250.79044414 -73.60670572 228.76492115 -72.1875 209.0625 C-72.11748779 208.02851074 -72.04747559 206.99452148 -71.9753418 205.92919922 C-70.92406864 192.96803878 -68.44549977 183.75991439 -59.4375 174.3125 C-53.48171565 169.71935012 -45.56063189 167.79512948 -38.46875 165.5625 C-26.08537358 161.64925541 -15.85848614 157.80138513 -9 146 C-7.04004655 141.41464472 -5.45020769 136.76884777 -4 132 C-3.64808594 130.93265625 -3.29617187 129.8653125 -2.93359375 128.765625 C4.61030672 98.33750761 3.02003776 54.82675039 -2 24 C-3.00452126 22.77246697 -3.00452126 22.77246697 -5.0328064 22.89320374 C-5.93125275 22.90145676 -6.8296991 22.90970978 -7.75537109 22.91821289 C-9.29114304 22.92788086 -9.29114304 22.92788086 -10.85794067 22.93774414 C-11.98505463 22.94926514 -13.11216858 22.96078613 -14.2734375 22.97265625 C-16.69303054 22.98698039 -19.11262717 23.00070818 -21.53222656 23.01391602 C-23.45234558 23.02637863 -23.45234558 23.02637863 -25.41125488 23.03909302 C-45.37890565 23.15700737 -65.30300884 23.07526562 -85.25 22.0625 C-86.54898224 21.99701462 -86.54898224 21.99701462 -87.87420654 21.9302063 C-93.25164612 21.6531523 -98.62623567 21.34065954 -104 21 C-104.6721051 20.95801483 -105.34421021 20.91602966 -106.03668213 20.87277222 C-112.52914018 20.46125292 -118.95582647 20.00736225 -125.375 18.9375 C-126.45523438 18.76089844 -127.53546875 18.58429687 -128.6484375 18.40234375 C-129.42445313 18.26957031 -130.20046875 18.13679688 -131 18 Z " fill="#171717" transform="translate(154,16)"/>
<path d="M0 0 C0.71961914 0.03335449 1.43923828 0.06670898 2.18066406 0.10107422 C13.74572811 0.80907735 24.5583781 6.17999974 33 14 C34.67057431 19.01172294 34.18592622 24.24653066 34.18530273 29.49438477 C34.18746651 31.53098168 34.20556742 33.56701615 34.22460938 35.60351562 C34.25576049 56.67205196 26.76139674 75.18429725 11.87890625 90.30078125 C0.77063838 100.7157244 -12.26918265 104.80154378 -27.40234375 104.31640625 C-43.55478733 102.89583304 -57.7946815 95.35716921 -68.4765625 83.17578125 C-81.38608841 66.66108673 -89.53828255 44.23696396 -87 23 C-84.91058558 18.69996203 -82.20551762 17.10551472 -78 15 C-76.86175781 14.38382813 -75.72351563 13.76765625 -74.55078125 13.1328125 C-66.42149519 8.92886582 -57.93123451 5.98862752 -49 4 C-48.19626953 3.81808105 -47.39253906 3.63616211 -46.56445312 3.44873047 C-31.01153091 0.0490433 -15.8852085 -0.74577112 0 0 Z " fill="#881C06" transform="translate(289,88)"/>
<path d="M0 0 C6.07148589 3.18923557 11.2097089 6.72801878 13.99023438 13.16259766 C15.86046957 19.85046404 14.61660535 25.86932943 12.60742188 32.36962891 C12.48265422 33.7637718 12.38005127 35.1600053 12.29492188 36.55712891 C10.8833293 50.41426269 1.72649996 62.44979623 -8.57226562 71.23681641 C-21.18326543 80.77366667 -36.22261498 87.60761632 -52.39257812 85.36962891 C-69.86585845 79.68901514 -88.18846666 69.7662316 -97.39257812 53.36962891 C-105.43637018 36.64407562 -106.27185784 21.30837041 -101.08007812 3.43212891 C-99.61437197 -0.58042308 -97.85774511 -3.01224492 -94.39257812 -5.63037109 C-88.42032703 -8.24977947 -83.05068365 -9.24014723 -76.58007812 -9.75537109 C-74.90664443 -9.90088707 -73.23345141 -10.04920534 -71.56054688 -10.20068359 C-70.8311792 -10.2601416 -70.10181152 -10.31959961 -69.3503418 -10.38085938 C-45.0781226 -13.47428848 -22.46149091 -10.41959252 0 0 Z " fill="#FEE997" transform="translate(126.392578125,96.63037109375)"/>
<path d="M0 0 C1.66796875 2.12890625 1.66796875 2.12890625 1.7421875 4.7109375 C0.27073565 8.02304184 -1.18189226 8.48928692 -4.51953125 9.81640625 C-5.46183594 10.21214844 -6.40414062 10.60789062 -7.375 11.015625 C-19.7803012 14.97059254 -33.86637851 14.92810765 -46.76953125 15.75390625 C-47.77528198 15.81861115 -48.78103271 15.88331604 -49.81726074 15.94998169 C-65.90273916 16.95828597 -81.96598036 17.4739131 -98.08203125 17.56640625 C-99.07717743 17.57835022 -100.07232361 17.59029419 -101.09762573 17.6026001 C-124.8396192 17.85058786 -124.8396192 17.85058786 -132.08227539 11.62426758 C-133.78905139 9.58207125 -133.71214111 8.37877548 -133.51953125 5.75390625 C-133.10297195 3.09995112 -132.75934758 1.59312176 -130.9296875 -0.39453125 C-128.80080954 -1.80778216 -126.67266143 -2.84367649 -124.33203125 -3.87109375 C-123.44644531 -4.2784375 -122.56085938 -4.68578125 -121.6484375 -5.10546875 C-86.92124004 -19.73695377 -31.21409678 -25.04447631 0 0 Z " fill="#FBFBFB" transform="translate(329.33203125,25.87109375)"/>
<path d="M0 0 C0.53625 0.49242187 1.0725 0.98484375 1.625 1.4921875 C1.625 2.8121875 1.625 4.1321875 1.625 5.4921875 C-4.87033604 7.28224845 -10.61196384 7.66906966 -17.3125 7.2421875 C-18.29428223 7.1898999 -19.27606445 7.1376123 -20.28759766 7.08374023 C-23.65100586 6.90043629 -27.01286541 6.69748393 -30.375 6.4921875 C-32.91534114 6.34205071 -35.4557068 6.19232834 -37.99609375 6.04296875 C-42.17017673 5.79733761 -46.34408508 5.54942173 -50.51757812 5.29394531 C-58.77102328 4.79316103 -67.02472071 4.35728629 -75.28515625 3.98828125 C-76.2038147 3.94655289 -77.12247314 3.90482452 -78.06896973 3.86183167 C-82.56437786 3.65800085 -87.05988714 3.46153805 -91.55615234 3.27758789 C-113.63092358 2.32157178 -113.63092358 2.32157178 -119.375 -1.5078125 C-113.20549642 -7.11480251 -107.50742472 -9.10076064 -99.375 -10.5078125 C-98.24892334 -10.71083984 -98.24892334 -10.71083984 -97.10009766 -10.91796875 C-64.86935974 -16.53762225 -28.96350823 -16.86362157 0 0 Z " fill="#F9F9F9" transform="translate(146.375,24.5078125)"/>
</svg>
